<svg width="60" height="60" viewBox="0 0 60 60" fill="none" xmlns="http://www.w3.org/2000/svg">
    <path d="M13.75 20C13.75 18.3424 14.4085 16.7527 15.5806 15.5806C16.7527 14.4085 18.3424 13.75 20 13.75C21.6576 13.75 23.2473 14.4085 24.4194 15.5806C25.5915 16.7527 26.25 18.3424 26.25 20C26.25 21.6576 25.5915 23.2473 24.4194 24.4194C23.2473 25.5915 21.6576 26.25 20 26.25C18.3424 26.25 16.7527 25.5915 15.5806 24.4194C14.4085 23.2473 13.75 21.6576 13.75 20ZM20 10C17.3478 10 14.8043 11.0536 12.9289 12.9289C11.0536 14.8043 10 17.3478 10 20C10 22.6522 11.0536 25.1957 12.9289 27.0711C14.8043 28.9464 17.3478 30 20 30C22.6522 30 25.1957 28.9464 27.0711 27.0711C28.9464 25.1957 30 22.6522 30 20C30 17.3478 28.9464 14.8043 27.0711 12.9289C25.1957 11.0536 22.6522 10 20 10ZM38.75 22.5C38.75 21.5054 39.1451 20.5516 39.8484 19.8483C40.5516 19.1451 41.5054 18.75 42.5 18.75C43.4946 18.75 44.4484 19.1451 45.1516 19.8483C45.8549 20.5516 46.25 21.5054 46.25 22.5C46.25 23.4946 45.8549 24.4484 45.1516 25.1517C44.4484 25.8549 43.4946 26.25 42.5 26.25C41.5054 26.25 40.5516 25.8549 39.8484 25.1517C39.1451 24.4484 38.75 23.4946 38.75 22.5ZM42.5 15C40.5109 15 38.6032 15.7902 37.1967 17.1967C35.7902 18.6032 35 20.5109 35 22.5C35 24.4891 35.7902 26.3968 37.1967 27.8033C38.6032 29.2098 40.5109 30 42.5 30C44.4891 30 46.3968 29.2098 47.8033 27.8033C49.2098 26.3968 50 24.4891 50 22.5C50 20.5109 49.2098 18.6032 47.8033 17.1967C46.3968 15.7902 44.4891 15 42.5 15ZM35.62 47.595C37.3775 48.3075 39.63 48.75 42.5025 48.75C48.2075 48.75 51.4675 47.0075 53.245 44.855C54.1075 43.81 54.545 42.755 54.77 41.9475C54.8982 41.4796 54.9762 40.9994 55.0025 40.515V40.4475C55.0025 39.7321 54.8616 39.0238 54.5878 38.3628C54.3141 37.7019 53.9128 37.1014 53.407 36.5955C52.9011 36.0897 52.3006 35.6884 51.6397 35.4147C50.9787 35.1409 50.2704 35 49.555 35H35.45C35.38 35 35.3125 35 35.245 35.005C36.23 36.03 36.945 37.3175 37.285 38.75H49.555C50.485 38.75 51.24 39.4975 51.2525 40.4225C51.2347 40.6017 51.2012 40.7791 51.1525 40.9525C50.998 41.5085 50.7251 42.0244 50.3525 42.465C49.4775 43.53 47.4225 45 42.5025 45C40.0525 45 38.3125 44.635 37.0775 44.1375C36.8075 45.1375 36.3625 46.345 35.62 47.595ZM10.625 35C9.13316 35 7.70242 35.5926 6.64752 36.6475C5.59263 37.7024 5 39.1332 5 40.625V41.32C5.00294 41.4938 5.01462 41.6674 5.035 41.84C5.24145 43.7003 5.91009 45.4793 6.98 47.015C9.025 49.935 12.93 52.5 20 52.5C27.07 52.5 30.975 49.9375 33.02 47.0125C34.0902 45.4769 34.7589 43.6978 34.965 41.8375C34.9826 41.6655 34.9943 41.4929 35 41.32V40.625C35 39.1332 34.4074 37.7024 33.3525 36.6475C32.2976 35.5926 30.8668 35 29.375 35H10.625ZM8.75 41.2675V40.625C8.75 40.1277 8.94754 39.6508 9.29917 39.2992C9.6508 38.9475 10.1277 38.75 10.625 38.75H29.375C29.8723 38.75 30.3492 38.9475 30.7008 39.2992C31.0525 39.6508 31.25 40.1277 31.25 40.625V41.2675L31.2325 41.4675C31.09 42.6877 30.6487 43.8538 29.9475 44.8625C28.715 46.625 26.055 48.75 20 48.75C13.945 48.75 11.285 46.625 10.05 44.8625C9.34974 43.8536 8.90922 42.6874 8.7675 41.4675C8.75991 41.401 8.75408 41.3343 8.75 41.2675Z"
          fill="currentcolor"/>
</svg>
