<svg width="40" height="40" viewBox="0 0 40 40" fill="none" xmlns="http://www.w3.org/2000/svg">
    <path d="M15.625 19.375C16.1223 19.375 16.5992 19.1775 16.9508 18.8258C17.3025 18.4742 17.5 17.9973 17.5 17.5C17.5 17.0027 17.3025 16.5258 16.9508 16.1742C16.5992 15.8225 16.1223 15.625 15.625 15.625C15.1277 15.625 14.6508 15.8225 14.2992 16.1742C13.9475 16.5258 13.75 17.0027 13.75 17.5C13.75 17.9973 13.9475 18.4742 14.2992 18.8258C14.6508 19.1775 15.1277 19.375 15.625 19.375ZM15.34 24.1675C15.231 24.0435 15.0985 23.9422 14.9502 23.8697C14.8018 23.7972 14.6406 23.7547 14.4757 23.7449C14.3109 23.735 14.1458 23.7579 13.9898 23.8122C13.8339 23.8665 13.6903 23.9512 13.5672 24.0613C13.4442 24.1715 13.3442 24.3049 13.2731 24.4539C13.2019 24.6029 13.161 24.7645 13.1526 24.9295C13.1443 25.0944 13.1687 25.2593 13.2244 25.4147C13.2802 25.5702 13.3662 25.713 13.4775 25.835C14.2977 26.7532 15.3029 27.4877 16.427 27.99C17.5511 28.4924 18.7687 28.7514 20 28.75C21.2313 28.7514 22.4489 28.4924 23.573 27.99C24.6971 27.4877 25.7023 26.7532 26.5225 25.835C26.74 25.5875 26.851 25.2641 26.8313 24.9352C26.8116 24.6062 26.6628 24.2984 26.4173 24.0786C26.1718 23.8588 25.8495 23.7448 25.5204 23.7615C25.1913 23.7781 24.8821 23.9241 24.66 24.1675C24.0743 24.824 23.3563 25.3489 22.5531 25.7079C21.7499 26.0668 20.8798 26.2516 20 26.25C18.15 26.25 16.4875 25.4475 15.34 24.1675ZM26.25 17.5C26.25 17.9973 26.0525 18.4742 25.7008 18.8258C25.3492 19.1775 24.8723 19.375 24.375 19.375C23.8777 19.375 23.4008 19.1775 23.0492 18.8258C22.6975 18.4742 22.5 17.9973 22.5 17.5C22.5 17.0027 22.6975 16.5258 23.0492 16.1742C23.4008 15.8225 23.8777 15.625 24.375 15.625C24.8723 15.625 25.3492 15.8225 25.7008 16.1742C26.0525 16.5258 26.25 17.0027 26.25 17.5ZM35 20C35 18.0302 34.612 16.0796 33.8582 14.2597C33.1044 12.4399 31.9995 10.7863 30.6066 9.3934C29.2137 8.00052 27.5601 6.89563 25.7403 6.14181C23.9204 5.38799 21.9698 5 20 5C18.0302 5 16.0796 5.38799 14.2597 6.14181C12.4399 6.89563 10.7863 8.00052 9.3934 9.3934C8.00052 10.7863 6.89563 12.4399 6.14181 14.2597C5.38799 16.0796 5 18.0302 5 20C5 23.9782 6.58035 27.7936 9.3934 30.6066C12.2064 33.4196 16.0218 35 20 35C23.9782 35 27.7936 33.4196 30.6066 30.6066C33.4196 27.7936 35 23.9782 35 20ZM7.5 20C7.5 16.6848 8.81696 13.5054 11.1612 11.1612C13.5054 8.81696 16.6848 7.5 20 7.5C23.3152 7.5 26.4946 8.81696 28.8388 11.1612C31.183 13.5054 32.5 16.6848 32.5 20C32.5 23.3152 31.183 26.4946 28.8388 28.8388C26.4946 31.183 23.3152 32.5 20 32.5C16.6848 32.5 13.5054 31.183 11.1612 28.8388C8.81696 26.4946 7.5 23.3152 7.5 20Z"
          fill="#45B36C"/>
</svg>
