<svg width="56" height="56" viewBox="0 0 56 56" fill="none" xmlns="http://www.w3.org/2000/svg">
    <circle cx="28" cy="28.0001" r="28" fill="#45B36C" fill-opacity="0.1"/>
    <circle cx="28" cy="28.0001" r="18" fill="#45B36C"/>
    <path d="M39.25 28.0001C39.25 26.5228 38.959 25.0598 38.3936 23.6949C37.8283 22.33 36.9996 21.0898 35.955 20.0452C34.9103 19.0005 33.6701 18.1718 32.3052 17.6065C30.9403 17.0411 29.4774 16.7501 28 16.7501C26.5226 16.7501 25.0597 17.0411 23.6948 17.6065C22.3299 18.1718 21.0897 19.0005 20.045 20.0452C19.0004 21.0898 18.1717 22.33 17.6064 23.6949C17.041 25.0598 16.75 26.5228 16.75 28.0001C16.75 30.9838 17.9353 33.8453 20.045 35.9551C22.1548 38.0649 25.0163 39.2501 28 39.2501C30.9837 39.2501 33.8452 38.0649 35.955 35.9551C38.0647 33.8453 39.25 30.9838 39.25 28.0001Z"
          fill="white"/>
    <path d="M24.7188 27.5314C25.0917 27.5314 25.4494 27.3832 25.7131 27.1195C25.9769 26.8558 26.125 26.4981 26.125 26.1251C26.125 25.7522 25.9769 25.3945 25.7131 25.1308C25.4494 24.867 25.0917 24.7189 24.7188 24.7189C24.3458 24.7189 23.9881 24.867 23.7244 25.1308C23.4607 25.3945 23.3125 25.7522 23.3125 26.1251C23.3125 26.4981 23.4607 26.8558 23.7244 27.1195C23.9881 27.3832 24.3458 27.5314 24.7188 27.5314ZM24.505 31.1257C24.4233 31.0327 24.3239 30.9568 24.2126 30.9024C24.1014 30.848 23.9805 30.8162 23.8568 30.8088C23.7332 30.8014 23.6093 30.8185 23.4924 30.8593C23.3754 30.9 23.2677 30.9635 23.1754 31.0461C23.0832 31.1287 23.0082 31.2288 22.9548 31.3406C22.9014 31.4523 22.8707 31.5735 22.8645 31.6972C22.8582 31.8209 22.8765 31.9446 22.9184 32.0612C22.9602 32.1777 23.0247 32.2849 23.1081 32.3764C23.7233 33.0651 24.4772 33.6159 25.3203 33.9927C26.1634 34.3694 27.0766 34.5637 28 34.5626C28.9235 34.5637 29.8367 34.3694 30.6798 33.9927C31.5228 33.6159 32.2767 33.0651 32.8919 32.3764C33.055 32.1907 33.1383 31.9482 33.1235 31.7015C33.1087 31.4548 32.9971 31.2239 32.813 31.0591C32.6289 30.8942 32.3871 30.8087 32.1403 30.8212C31.8935 30.8337 31.6616 30.9432 31.495 31.1257C31.0558 31.6181 30.5172 32.0118 29.9148 32.281C29.3124 32.5502 28.6598 32.6888 28 32.6876C26.6125 32.6876 25.3656 32.0857 24.505 31.1257ZM32.6875 26.1251C32.6875 26.4981 32.5394 26.8558 32.2756 27.1195C32.0119 27.3832 31.6542 27.5314 31.2813 27.5314C30.9083 27.5314 30.5506 27.3832 30.2869 27.1195C30.0232 26.8558 29.875 26.4981 29.875 26.1251C29.875 25.7522 30.0232 25.3945 30.2869 25.1308C30.5506 24.867 30.9083 24.7189 31.2813 24.7189C31.6542 24.7189 32.0119 24.867 32.2756 25.1308C32.5394 25.3945 32.6875 25.7522 32.6875 26.1251Z"
          fill="#45B36C"/>
</svg>
