<svg width="60" height="60" viewBox="0 0 60 60" fill="none" xmlns="http://www.w3.org/2000/svg">
    <path d="M43.25 7.5C42.1454 7.5 41.25 8.39543 41.25 9.5V13.125H18.75V9.5C18.75 8.39543 17.8546 7.5 16.75 7.5H5.75C4.64543 7.5 3.75 8.39543 3.75 9.5V20.5C3.75 21.6046 4.64543 22.5 5.75 22.5H16.75C17.8546 22.5 18.75 21.6046 18.75 20.5V16.875H31.9181C30.679 18.4888 30.005 20.4654 30 22.5V37.5C29.998 38.9912 29.4047 40.4208 28.3503 41.4753C27.2958 42.5297 25.8662 43.123 24.375 43.125H18.75V39.5C18.75 38.3954 17.8546 37.5 16.75 37.5H5.75C4.64543 37.5 3.75 38.3954 3.75 39.5V50.5C3.75 51.6046 4.64543 52.5 5.75 52.5H16.75C17.8546 52.5 18.75 51.6046 18.75 50.5V46.875H24.375C26.8605 46.872 29.2433 45.8833 31.0008 44.1258C32.7583 42.3683 33.747 39.9855 33.75 37.5V22.5C33.7495 21.7616 33.8945 21.0304 34.1766 20.3481C34.4588 19.6658 34.8726 19.0458 35.3944 18.5234C35.9163 18.0011 36.5359 17.5866 37.2179 17.3038C37.9 17.021 38.631 16.8752 39.3694 16.875H41.25V20.5C41.25 21.6046 42.1454 22.5 43.25 22.5H54.25C55.3546 22.5 56.25 21.6046 56.25 20.5V9.5C56.25 8.39543 55.3546 7.5 54.25 7.5H43.25ZM15 18.75H7.5V11.25H15V18.75ZM15 48.75H7.5V41.25H15V48.75ZM52.5 18.75H45V11.25H52.5V18.75Z"
          fill="currentcolor"/>
</svg>
