<svg width="40" height="40" viewBox="0 0 40 40" fill="none" xmlns="http://www.w3.org/2000/svg">
    <path d="M17.5 17.5C17.5 17.7462 17.4515 17.99 17.3573 18.2175C17.263 18.445 17.1249 18.6517 16.9508 18.8258C16.7767 18.9999 16.57 19.138 16.3425 19.2323C16.115 19.3265 15.8712 19.375 15.625 19.375C15.3788 19.375 15.135 19.3265 14.9075 19.2323C14.68 19.138 14.4733 18.9999 14.2992 18.8258C14.1251 18.6517 13.987 18.445 13.8927 18.2175C13.7985 17.99 13.75 17.7462 13.75 17.5C13.75 17.0027 13.9475 16.5258 14.2992 16.1742C14.6508 15.8225 15.1277 15.625 15.625 15.625C16.1223 15.625 16.5992 15.8225 16.9508 16.1742C17.3025 16.5258 17.5 17.0027 17.5 17.5ZM24.375 19.375C24.8723 19.375 25.3492 19.1775 25.7008 18.8258C26.0525 18.4742 26.25 17.9973 26.25 17.5C26.25 17.0027 26.0525 16.5258 25.7008 16.1742C25.3492 15.8225 24.8723 15.625 24.375 15.625C23.8777 15.625 23.4008 15.8225 23.0492 16.1742C22.6975 16.5258 22.5 17.0027 22.5 17.5C22.5 17.9973 22.6975 18.4742 23.0492 18.8258C23.4008 19.1775 23.8777 19.375 24.375 19.375ZM15 22.5C14.6685 22.5 14.3505 22.6317 14.1161 22.8661C13.8817 23.1005 13.75 23.4185 13.75 23.75C13.75 24.0815 13.8817 24.3995 14.1161 24.6339C14.3505 24.8683 14.6685 25 15 25H25C25.3315 25 25.6495 24.8683 25.8839 24.6339C26.1183 24.3995 26.25 24.0815 26.25 23.75C26.25 23.4185 26.1183 23.1005 25.8839 22.8661C25.6495 22.6317 25.3315 22.5 25 22.5H15ZM20 5C21.9698 5 23.9204 5.38799 25.7403 6.14181C27.5601 6.89563 29.2137 8.00052 30.6066 9.3934C31.9995 10.7863 33.1044 12.4399 33.8582 14.2597C34.612 16.0796 35 18.0302 35 20C35 21.9698 34.612 23.9204 33.8582 25.7403C33.1044 27.5601 31.9995 29.2137 30.6066 30.6066C29.2137 31.9995 27.5601 33.1044 25.7403 33.8582C23.9204 34.612 21.9698 35 20 35C16.0218 35 12.2064 33.4196 9.3934 30.6066C6.58035 27.7936 5 23.9782 5 20C5 16.0218 6.58035 12.2064 9.3934 9.3934C12.2064 6.58035 16.0218 5 20 5ZM20 7.5C16.6848 7.5 13.5054 8.81696 11.1612 11.1612C8.81696 13.5054 7.5 16.6848 7.5 20C7.5 23.3152 8.81696 26.4946 11.1612 28.8388C13.5054 31.183 16.6848 32.5 20 32.5C23.3152 32.5 26.4946 31.183 28.8388 28.8388C31.183 26.4946 32.5 23.3152 32.5 20C32.5 16.6848 31.183 13.5054 28.8388 11.1612C26.4946 8.81696 23.3152 7.5 20 7.5Z"
          fill="#FFD167"/>
</svg>
