<svg width="56" height="56" viewBox="0 0 56 56" fill="none" xmlns="http://www.w3.org/2000/svg">
    <circle cx="28" cy="28.0001" r="28" fill="#FFD167" fill-opacity="0.1"/>
    <circle cx="28" cy="28.0001" r="18" fill="#FFD167"/>
    <path d="M28 16.7501C29.4774 16.7501 30.9403 17.0411 32.3052 17.6065C33.6701 18.1718 34.9103 19.0005 35.955 20.0452C36.9996 21.0898 37.8283 22.33 38.3936 23.6949C38.959 25.0598 39.25 26.5228 39.25 28.0001C39.25 29.4775 38.959 30.9404 38.3936 32.3053C37.8283 33.6702 36.9996 34.9104 35.955 35.9551C34.9103 36.9997 33.6701 37.8284 32.3052 38.3938C30.9403 38.9591 29.4774 39.2501 28 39.2501C25.0163 39.2501 22.1548 38.0649 20.045 35.9551C17.9353 33.8453 16.75 30.9838 16.75 28.0001C16.75 25.0164 17.9353 22.155 20.045 20.0452C22.1548 17.9354 25.0163 16.7501 28 16.7501Z"
          fill="white"/>
    <path d="M26.125 26.1251C26.125 26.3098 26.0886 26.4927 26.018 26.6633C25.9473 26.8339 25.8437 26.9889 25.7131 27.1195C25.5825 27.2501 25.4275 27.3537 25.2569 27.4243C25.0863 27.495 24.9034 27.5314 24.7188 27.5314C24.5341 27.5314 24.3512 27.495 24.1806 27.4243C24.01 27.3537 23.855 27.2501 23.7244 27.1195C23.5938 26.9889 23.4902 26.8339 23.4195 26.6633C23.3489 26.4927 23.3125 26.3098 23.3125 26.1251C23.3125 25.7522 23.4607 25.3945 23.7244 25.1308C23.9881 24.867 24.3458 24.7189 24.7188 24.7189C25.0917 24.7189 25.4494 24.867 25.7131 25.1308C25.9768 25.3945 26.125 25.7522 26.125 26.1251ZM31.2812 27.5314C31.6542 27.5314 32.0119 27.3832 32.2756 27.1195C32.5393 26.8558 32.6875 26.4981 32.6875 26.1251C32.6875 25.7522 32.5393 25.3945 32.2756 25.1308C32.0119 24.867 31.6542 24.7189 31.2812 24.7189C30.9083 24.7189 30.5506 24.867 30.2869 25.1308C30.0232 25.3945 29.875 25.7522 29.875 26.1251C29.875 26.4981 30.0232 26.8558 30.2869 27.1195C30.5506 27.3832 30.9083 27.5314 31.2812 27.5314ZM24.25 29.8751C24.0014 29.8751 23.7629 29.9739 23.5871 30.1497C23.4113 30.3255 23.3125 30.564 23.3125 30.8126C23.3125 31.0613 23.4113 31.2997 23.5871 31.4755C23.7629 31.6514 24.0014 31.7501 24.25 31.7501H31.75C31.9986 31.7501 32.2371 31.6514 32.4129 31.4755C32.5887 31.2997 32.6875 31.0613 32.6875 30.8126C32.6875 30.564 32.5887 30.3255 32.4129 30.1497C32.2371 29.9739 31.9986 29.8751 31.75 29.8751H24.25Z"
          fill="#FFD167"/>
</svg>
