<svg width="56" height="56" viewBox="0 0 56 56" fill="none" xmlns="http://www.w3.org/2000/svg">
    <circle cx="28" cy="28.0001" r="28" fill="#3872FF" fill-opacity="0.1"/>
    <circle cx="28" cy="28.0001" r="18" fill="#3872FF"/>
    <path d="M24 28.0001C25.0609 28.0001 26.0783 27.5787 26.8284 26.8285C27.5786 26.0784 28 25.061 28 24.0001C28 22.9393 27.5786 21.9218 26.8284 21.1717C26.0783 20.4215 25.0609 20.0001 24 20.0001C22.9391 20.0001 21.9217 20.4215 21.1716 21.1717C20.4214 21.9218 20 22.9393 20 24.0001C20 25.061 20.4214 26.0784 21.1716 26.8285C21.9217 27.5787 22.9391 28.0001 24 28.0001ZM33 28.0001C33.7956 28.0001 34.5587 27.6841 35.1213 27.1214C35.6839 26.5588 36 25.7958 36 25.0001C36 24.2045 35.6839 23.4414 35.1213 22.8788C34.5587 22.3162 33.7956 22.0001 33 22.0001C32.2043 22.0001 31.4413 22.3162 30.8787 22.8788C30.3161 23.4414 30 24.2045 30 25.0001C30 25.7958 30.3161 26.5588 30.8787 27.1214C31.4413 27.6841 32.2043 28.0001 33 28.0001ZM19.375 29.5001C18.8777 29.5001 18.4008 29.6977 18.0492 30.0493C17.6975 30.4009 17.5 30.8778 17.5 31.3751V32.0001C17.5 32.0001 17.5 36.5001 24 36.5001C30.5 36.5001 30.5 32.0001 30.5 32.0001V31.3751C30.5 30.8778 30.3025 30.4009 29.9508 30.0493C29.5992 29.6977 29.1223 29.5001 28.625 29.5001H19.375ZM30.337 35.0446C31.025 35.3236 31.8965 35.5001 32.9995 35.5001C38.2495 35.5001 38.2495 31.5001 38.2495 31.5001V31.3751C38.2495 30.8779 38.052 30.4011 37.7005 30.0495C37.349 29.6979 36.8722 29.5003 36.375 29.5001H30.8035C31.2531 30.0212 31.5 30.6869 31.499 31.3751V32.0226L31.4985 32.0511C31.4956 32.1482 31.4889 32.2451 31.4785 32.3416C31.4537 32.5648 31.4134 32.786 31.358 33.0036C31.1687 33.7496 30.8204 34.4458 30.337 35.0446Z"
          fill="white"/>
</svg>
