<svg width="56" height="56" viewBox="0 0 56 56" fill="none" xmlns="http://www.w3.org/2000/svg">
    <circle cx="28" cy="28.0001" r="28" fill="#EF466F" fill-opacity="0.1"/>
    <circle cx="28" cy="28.0001" r="18" fill="#EF466F"/>
    <path d="M39.25 28.0001C39.25 26.5228 38.959 25.0598 38.3936 23.6949C37.8283 22.33 36.9996 21.0898 35.955 20.0452C34.9103 19.0005 33.6701 18.1718 32.3052 17.6065C30.9403 17.0411 29.4774 16.7501 28 16.7501C26.5226 16.7501 25.0597 17.0411 23.6948 17.6065C22.3299 18.1718 21.0897 19.0005 20.045 20.0452C19.0004 21.0898 18.1717 22.33 17.6064 23.6949C17.041 25.0598 16.75 26.5228 16.75 28.0001C16.75 30.9838 17.9353 33.8453 20.045 35.9551C22.1548 38.0649 25.0163 39.2501 28 39.2501C30.9837 39.2501 33.8452 38.0649 35.955 35.9551C38.0647 33.8453 39.25 30.9838 39.25 28.0001Z"
          fill="white"/>
    <path d="M26.125 25.6564C26.125 25.841 26.0886 26.0239 26.0179 26.1945C25.9473 26.3651 25.8437 26.5202 25.7131 26.6507C25.5825 26.7813 25.4275 26.8849 25.2569 26.9556C25.0863 27.0262 24.9034 27.0626 24.7187 27.0626C24.5341 27.0626 24.3512 27.0262 24.1806 26.9556C24.01 26.8849 23.8549 26.7813 23.7244 26.6507C23.5938 26.5202 23.4902 26.3651 23.4195 26.1945C23.3489 26.0239 23.3125 25.841 23.3125 25.6564C23.3125 25.2834 23.4606 24.9257 23.7244 24.662C23.9881 24.3983 24.3458 24.2501 24.7187 24.2501C25.0917 24.2501 25.4494 24.3983 25.7131 24.662C25.9768 24.9257 26.125 25.2834 26.125 25.6564ZM32.6875 25.6564C32.6875 26.0293 32.5393 26.387 32.2756 26.6507C32.0119 26.9145 31.6542 27.0626 31.2812 27.0626C30.9083 27.0626 30.5506 26.9145 30.2869 26.6507C30.0231 26.387 29.875 26.0293 29.875 25.6564C29.875 25.2834 30.0231 24.9257 30.2869 24.662C30.5506 24.3983 30.9083 24.2501 31.2812 24.2501C31.6542 24.2501 32.0119 24.3983 32.2756 24.662C32.5393 24.9257 32.6875 25.2834 32.6875 25.6564ZM24.4975 33.2914C26.2319 31.2364 29.7662 31.2364 31.5025 33.2914C31.58 33.391 31.6768 33.474 31.7871 33.5354C31.8974 33.5967 32.019 33.6352 32.1446 33.6484C32.2701 33.6616 32.397 33.6493 32.5177 33.6122C32.6384 33.5752 32.7504 33.5142 32.8469 33.4328C32.9434 33.3515 33.0225 33.2514 33.0794 33.1388C33.1364 33.0261 33.1699 32.9031 33.1782 32.7771C33.1864 32.6511 33.1691 32.5248 33.1273 32.4057C33.0855 32.2866 33.0201 32.1771 32.935 32.0839C30.4506 29.1401 25.5475 29.1401 23.065 32.0839C22.9799 32.1771 22.9144 32.2866 22.8727 32.4057C22.8309 32.5248 22.8136 32.6511 22.8218 32.7771C22.83 32.9031 22.8636 33.0261 22.9205 33.1388C22.9775 33.2514 23.0566 33.3515 23.1531 33.4328C23.2496 33.5142 23.3616 33.5752 23.4823 33.6122C23.6029 33.6493 23.7299 33.6616 23.8554 33.6484C23.981 33.6352 24.1025 33.5967 24.2129 33.5354C24.3232 33.474 24.42 33.391 24.4975 33.2914Z"
          fill="#EF466F"/>
</svg>
