<svg width="40" height="40" viewBox="0 0 40 40" fill="none" xmlns="http://www.w3.org/2000/svg">
    <path d="M35 20C35 18.0302 34.612 16.0796 33.8582 14.2597C33.1044 12.4399 31.9995 10.7863 30.6066 9.3934C29.2137 8.00052 27.5601 6.89563 25.7403 6.14181C23.9204 5.38799 21.9698 5 20 5C18.0302 5 16.0796 5.38799 14.2597 6.14181C12.4399 6.89563 10.7863 8.00052 9.3934 9.3934C8.00052 10.7863 6.89563 12.4399 6.14181 14.2597C5.38799 16.0796 5 18.0302 5 20C5 23.9782 6.58035 27.7936 9.3934 30.6066C12.2064 33.4196 16.0218 35 20 35C23.9782 35 27.7936 33.4196 30.6066 30.6066C33.4196 27.7936 35 23.9782 35 20ZM7.5 20C7.5 16.6848 8.81696 13.5054 11.1612 11.1612C13.5054 8.81696 16.6848 7.5 20 7.5C23.3152 7.5 26.4946 8.81696 28.8388 11.1612C31.183 13.5054 32.5 16.6848 32.5 20C32.5 23.3152 31.183 26.4946 28.8388 28.8388C26.4946 31.183 23.3152 32.5 20 32.5C16.6848 32.5 13.5054 31.183 11.1612 28.8388C8.81696 26.4946 7.5 23.3152 7.5 20ZM17.5 16.875C17.5 17.1212 17.4515 17.365 17.3573 17.5925C17.263 17.82 17.1249 18.0267 16.9508 18.2008C16.7767 18.3749 16.57 18.513 16.3425 18.6073C16.115 18.7015 15.8712 18.75 15.625 18.75C15.3788 18.75 15.135 18.7015 14.9075 18.6073C14.68 18.513 14.4733 18.3749 14.2992 18.2008C14.1251 18.0267 13.987 17.82 13.8927 17.5925C13.7985 17.365 13.75 17.1212 13.75 16.875C13.75 16.3777 13.9475 15.9008 14.2992 15.5492C14.6508 15.1975 15.1277 15 15.625 15C16.1223 15 16.5992 15.1975 16.9508 15.5492C17.3025 15.9008 17.5 16.3777 17.5 16.875ZM26.25 16.875C26.25 17.3723 26.0525 17.8492 25.7008 18.2008C25.3492 18.5525 24.8723 18.75 24.375 18.75C23.8777 18.75 23.4008 18.5525 23.0492 18.2008C22.6975 17.8492 22.5 17.3723 22.5 16.875C22.5 16.3777 22.6975 15.9008 23.0492 15.5492C23.4008 15.1975 23.8777 15 24.375 15C24.8723 15 25.3492 15.1975 25.7008 15.5492C26.0525 15.9008 26.25 16.3777 26.25 16.875ZM15.33 27.055C17.6425 24.315 22.355 24.315 24.67 27.055C24.7733 27.1879 24.9024 27.2986 25.0495 27.3803C25.1966 27.4621 25.3587 27.5134 25.5261 27.531C25.6935 27.5486 25.8627 27.5322 26.0236 27.4828C26.1846 27.4335 26.3338 27.3521 26.4625 27.2436C26.5912 27.1351 26.6967 27.0018 26.7726 26.8515C26.8485 26.7013 26.8933 26.5373 26.9042 26.3693C26.9152 26.2013 26.8921 26.0329 26.8364 25.8741C26.7807 25.7152 26.6935 25.5693 26.58 25.445C23.2675 21.52 16.73 21.52 13.42 25.445C13.3065 25.5693 13.2193 25.7152 13.1636 25.8741C13.1079 26.0329 13.0848 26.2013 13.0958 26.3693C13.1067 26.5373 13.1515 26.7013 13.2274 26.8515C13.3033 27.0018 13.4088 27.1351 13.5375 27.2436C13.6662 27.3521 13.8154 27.4335 13.9764 27.4828C14.1373 27.5322 14.3065 27.5486 14.4739 27.531C14.6413 27.5134 14.8034 27.4621 14.9505 27.3803C15.0976 27.2986 15.2267 27.1879 15.33 27.055Z"
          fill="#EF466F"/>
</svg>
